# xmcd
#
# Track frame offsets:
#	150
#	12463
#	25586
#	34083
#	50598
#	67654
#	83263
#	102334
#	114614
#	124846
#	142370
#	160338
#	175166
#
# Disc length: 2539 seconds
# Revision: 2
# Processed by: cddbd v1.5.2PL0 Copyright (c) Steve Scherf et al.
# Submitted via: dBpowerAMP V12.0
#
DISCID=a609e90d
DTITLE=Chatham County Line - Sharing The Covers
DYEAR=2019
DGENRE=Bluegrass
TTITLE0=I Got You (At The End Of The Century)
TTITLE1=People Gonna Talk
TTITLE2=Walk, Don't Run
TTITLE3=My Baby's Gone
TTITLE4=Bumblebee
TTITLE5=Think I'm In Love
TTITLE6=You Don't Know How It Feels
TTITLE7=Girl On The Billboard
TTITLE8=Think Of What You've Done
TTITLE9=Watching The Wheels
TTITLE10=Tear Down The Grand Ole Opry
TTITLE11=The Last Time
TTITLE12=Gonna Lay Down My Old Guitar
EXTD=
EXTT0=
EXTT1=
EXTT2=
EXTT3=
EXTT4=
EXTT5=
EXTT6=
EXTT7=
EXTT8=
EXTT9=
EXTT10=
EXTT11=
EXTT12=
PLAYORDER=
